HIERARCHY
ROOT Hips
{
	OFFSET -0.989649 94.241203 -21.683411
	CHANNELS 6 Xposition Yposition Zposition Zrotation Xrotation Yrotation
	JOINT Spine
	{
		OFFSET 0.000000 8.229828 -1.033529
		CHANNELS 3 Zrotation Xrotation Yrotation
		JOINT Spine1
		{
			OFFSET 0.000000 13.214104 -0.000004
			CHANNELS 3 Zrotation Xrotation Yrotation
			JOINT Spine2
			{
				OFFSET 0.000000 11.402901 -0.032116
				CHANNELS 3 Zrotation Xrotation Yrotation
				JOINT Spine3
				{
					OFFSET 0.000000 10.713203 -0.032148
					CHANNELS 3 Zrotation Xrotation Yrotation
					JOINT Neck
					{
						OFFSET 0.000000 14.443802 -0.000002
						CHANNELS 3 Zrotation Xrotation Yrotation
						JOINT Head
						{
							OFFSET 0.000000 9.446213 0.043360
							CHANNELS 3 Zrotation Xrotation Yrotation
							End Site
							{
								OFFSET 0.000000 22.302200 -0.000002
							}
						}
					}
					JOINT RightShoulder
					{
						OFFSET -2.748830 7.216599 -1.389261
						CHANNELS 3 Zrotation Xrotation Yrotation
						JOINT RightArm
						{
							OFFSET -15.982500 0.000000 1.077400
							CHANNELS 3 Zrotation Xrotation Yrotation
							JOINT RightForearm
							{
								OFFSET -28.063299 -0.000031 -1.298990
								CHANNELS 3 Zrotation Xrotation Yrotation
								JOINT RightHand
								{
									OFFSET -25.731804 -0.584320 0.163717
									CHANNELS 3 Zrotation Xrotation Yrotation
									JOINT RightFinger1_1
									{
										OFFSET -8.188362 0.324829 2.893160
										CHANNELS 3 Zrotation Xrotation Yrotation
										JOINT RightFinger1_2
										{
											OFFSET -3.211906 0.000000 1.815241
											CHANNELS 3 Zrotation Xrotation Yrotation
											JOINT RightFinger1_3
											{
												OFFSET -2.931290 0.000000 1.656639
												CHANNELS 3 Zrotation Xrotation Yrotation
												End Site
												{
													OFFSET -3.020950 0.000275 1.707310
												}
											}
										}
									}
									JOINT RightFinger2_1
									{
										OFFSET -14.106499 0.324829 1.343210
										CHANNELS 3 Zrotation Xrotation Yrotation
										JOINT RightFinger2_2
										{
											OFFSET -2.457581 0.000000 0.000000
											CHANNELS 3 Zrotation Xrotation Yrotation
											JOINT RightFinger2_3
											{
												OFFSET -2.126663 -0.000015 0.000000
												CHANNELS 3 Zrotation Xrotation Yrotation
												End Site
												{
													OFFSET -2.806572 -0.000015 0.000000
												}
											}
										}
									}
									JOINT RightFinger3_1
									{
										OFFSET -14.461502 0.324829 0.084534
										CHANNELS 3 Zrotation Xrotation Yrotation
										JOINT RightFinger3_2
										{
											OFFSET -2.418533 0.000000 0.000000
											CHANNELS 3 Zrotation Xrotation Yrotation
											JOINT RightFinger3_3
											{
												OFFSET -2.602234 0.000000 0.000000
												CHANNELS 3 Zrotation Xrotation Yrotation
												End Site
												{
													OFFSET -3.055267 0.000000 0.000000
												}
											}
										}
									}
									JOINT RightFinger4_1
									{
										OFFSET -14.335503 0.324829 -1.184561
										CHANNELS 3 Zrotation Xrotation Yrotation
										JOINT RightFinger4_2
										{
											OFFSET -2.562088 0.000000 0.000000
											CHANNELS 3 Zrotation Xrotation Yrotation
											JOINT RightFinger4_3
											{
												OFFSET -2.353508 -0.000427 0.000000
												CHANNELS 3 Zrotation Xrotation Yrotation
												End Site
												{
													OFFSET -2.808708 -0.000351 0.000000
												}
											}
										}
									}
									JOINT RightFinger5_1
									{
										OFFSET -13.777199 0.324829 -2.183170
										CHANNELS 3 Zrotation Xrotation Yrotation
										JOINT RightFinger5_2
										{
											OFFSET -2.117401 0.000000 0.000000
											CHANNELS 3 Zrotation Xrotation Yrotation
											JOINT RightFinger5_3
											{
												OFFSET -1.853996 -0.000015 0.000000
												CHANNELS 3 Zrotation Xrotation Yrotation
												End Site
												{
													OFFSET -2.357170 -0.000015 0.000000
												}
											}
										}
									}
								}
							}
						}
					}
					JOINT LeftShoulder
					{
						OFFSET 2.748830 7.216599 -1.389261
						CHANNELS 3 Zrotation Xrotation Yrotation
						JOINT LeftArm
						{
							OFFSET 15.982999 0.000000 1.077410
							CHANNELS 3 Zrotation Xrotation Yrotation
							JOINT LeftForearm
							{
								OFFSET 28.071800 -0.000031 -1.299120
								CHANNELS 3 Zrotation Xrotation Yrotation
								JOINT LeftHand
								{
									OFFSET 25.723198 0.145020 0.248377
									CHANNELS 3 Zrotation Xrotation Yrotation
									JOINT LeftFinger1_1
									{
										OFFSET 8.187859 -0.404510 2.808630
										CHANNELS 3 Zrotation Xrotation Yrotation
										JOINT LeftFinger1_2
										{
											OFFSET 3.211906 0.000000 1.815241
											CHANNELS 3 Zrotation Xrotation Yrotation
											JOINT LeftFinger1_3
											{
												OFFSET 2.931290 0.000000 1.656641
												CHANNELS 3 Zrotation Xrotation Yrotation
												End Site
												{
													OFFSET 3.020950 0.000275 1.707310
												}
											}
										}
									}
									JOINT LeftFinger2_1
									{
										OFFSET 14.106003 -0.404510 1.258680
										CHANNELS 3 Zrotation Xrotation Yrotation
										JOINT LeftFinger2_2
										{
											OFFSET 2.457581 0.000000 0.000000
											CHANNELS 3 Zrotation Xrotation Yrotation
											JOINT LeftFinger2_3
											{
												OFFSET 2.126663 -0.000015 0.000000
												CHANNELS 3 Zrotation Xrotation Yrotation
												End Site
												{
													OFFSET 2.806572 -0.000015 0.000000
												}
											}
										}
									}
									JOINT LeftFinger3_1
									{
										OFFSET 14.460999 -0.404510 0.000000
										CHANNELS 3 Zrotation Xrotation Yrotation
										JOINT LeftFinger3_2
										{
											OFFSET 2.418533 0.000000 0.000000
											CHANNELS 3 Zrotation Xrotation Yrotation
											JOINT LeftFinger3_3
											{
												OFFSET 2.602226 0.000000 0.000000
												CHANNELS 3 Zrotation Xrotation Yrotation
												End Site
												{
													OFFSET 3.055267 0.000000 0.000000
												}
											}
										}
									}
									JOINT LeftFinger4_1
									{
										OFFSET 14.334999 -0.404510 -1.269091
										CHANNELS 3 Zrotation Xrotation Yrotation
										JOINT LeftFinger4_2
										{
											OFFSET 2.562088 0.000000 0.000000
											CHANNELS 3 Zrotation Xrotation Yrotation
											JOINT LeftFinger4_3
											{
												OFFSET 2.353508 -0.000427 0.000000
												CHANNELS 3 Zrotation Xrotation Yrotation
												End Site
												{
													OFFSET 2.808708 -0.000351 0.000000
												}
											}
										}
									}
									JOINT LeftFinger5_1
									{
										OFFSET 13.776703 -0.404510 -2.267700
										CHANNELS 3 Zrotation Xrotation Yrotation
										JOINT LeftFinger5_2
										{
											OFFSET 2.117401 0.000000 0.000000
											CHANNELS 3 Zrotation Xrotation Yrotation
											JOINT LeftFinger5_3
											{
												OFFSET 1.853996 -0.000015 0.000000
												CHANNELS 3 Zrotation Xrotation Yrotation
												End Site
												{
													OFFSET 2.357170 -0.000015 0.000000
												}
											}
										}
									}
								}
							}
						}
					}
				}
			}
		}
	}
	JOINT RightThigh
	{
		OFFSET -8.935050 -3.038040 2.082310
		CHANNELS 3 Zrotation Xrotation Yrotation
		JOINT RightShin
		{
			OFFSET 0.000022 -44.433601 2.096966
			CHANNELS 3 Zrotation Xrotation Yrotation
			JOINT RightFoot
			{
				OFFSET -0.000018 -41.375706 -3.268965
				CHANNELS 3 Zrotation Xrotation Yrotation
				JOINT RightToe
				{
					OFFSET 0.000000 -12.055998 16.346001
					CHANNELS 3 Zrotation Xrotation Yrotation
					End Site
					{
						OFFSET 0.000000 -1.750949 7.768741
					}
				}
			}
		}
	}
	JOINT LeftThigh
	{
		OFFSET 8.935050 -3.038040 2.082310
		CHANNELS 3 Zrotation Xrotation Yrotation
		JOINT LeftShin
		{
			OFFSET -0.000022 -44.433601 2.096966
			CHANNELS 3 Zrotation Xrotation Yrotation
			JOINT LeftFoot
			{
				OFFSET 0.000018 -41.375706 -3.268965
				CHANNELS 3 Zrotation Xrotation Yrotation
				JOINT LeftToe
				{
					OFFSET 0.000000 -12.055998 16.346001
					CHANNELS 3 Zrotation Xrotation Yrotation
					End Site
					{
						OFFSET 0.000000 -1.750949 7.768741
					}
				}
			}
		}
	}
}
MOTION
Frames: 5
Frame Time: 0.004167
61.602005 86.458900 8.895245 -1.371049 -6.712041 -30.159404 -6.998734 17.064311 3.621477 -2.437800 4.835251 0.999336 -2.419021 4.846682 1.038219 -1.607242 3.652612 0.741427 0.783282 -5.285211 10.625597 5.271706 -9.020169 20.335194 4.474832 -5.569234 -1.460979 49.057598 7.669648 0.592000 35.072297 19.896392 64.811009 -11.616507 7.456173 19.208894 -19.815383 67.781506 11.450793 41.096405 10.827290 -2.206057 0.067842 0.038349 -0.000006 77.261399 -0.009439 0.000017 57.727195 0.397744 -0.629211 49.003807 1.255775 -3.047222 94.417591 0.000021 0.000018 51.438008 -1.308205 1.450025 51.089593 0.000007 0.000010 90.997490 0.000022 0.000018 51.702903 -1.362655 1.394384 51.060705 0.000004 0.000018 77.261700 0.000016 0.000016 49.402400 -1.217792 1.131740 65.259500 0.000010 0.000013 9.997675 2.557409 -10.091802 -77.441477 -55.803708 -61.838491 -17.172885 16.264917 -68.717003 36.322495 -14.885895 12.358907 23.384123 70.691201 -12.601720 -68.021116 -1.912441 -2.441963 1.064006 -1.018153 19.426993 -77.261515 -0.009947 -0.000013 -57.727126 0.397306 0.629629 -77.260621 0.000014 -0.000017 -97.473008 -1.291829 0.717129 -37.080107 -1.779868 -0.803821 -99.969511 0.000021 -0.000016 -88.871717 -0.366358 -3.469137 -63.453011 -1.938629 0.204926 -67.116519 0.000013 -0.000018 -87.754216 -0.068399 -0.601863 -61.066317 -1.194372 -1.156486 -73.964323 0.000014 -0.000019 -17.802798 -15.573202 -6.033286 16.513326 65.016619 -5.145982 -14.302087 -26.771495 -50.943495 -1.073062 -1.638081 -0.159808 26.128491 -15.395200 26.736511 -27.135247 61.311733 31.054415 -9.133816 -26.871697 13.943498 0.142056 -3.160224 -0.055275 
61.684505 86.407501 8.831720 -1.452487 -6.627049 -30.064901 -7.078343 17.100705 3.719036 -2.469230 4.854583 1.035848 -2.450452 4.866043 1.074731 -1.630419 3.667522 0.768433 0.825642 -5.315113 10.529798 5.342807 -9.080482 20.160396 4.559751 -5.612571 -1.446905 49.239302 7.885639 0.787864 35.173289 19.763998 65.080406 -12.004704 7.527462 18.993697 -19.815376 67.781506 11.450789 41.096405 10.827294 -2.206055 0.067843 0.038351 -0.000000 77.261392 -0.009444 0.000014 57.727195 0.397749 -0.629212 49.003804 1.255776 -3.047218 94.417584 0.000019 0.000015 51.438011 -1.308206 1.450024 51.089593 0.000007 0.000014 90.997483 0.000016 0.000015 51.702903 -1.362655 1.394387 51.060694 0.000007 0.000016 77.261693 0.000014 0.000014 49.402396 -1.217791 1.131744 65.259507 0.000008 0.000014 10.106101 2.490363 -10.182398 -77.568095 -55.721899 -62.277808 -16.960488 16.226817 -68.660203 36.324609 -14.835499 12.443413 23.384105 70.691208 -12.601736 -68.021123 -1.912440 -2.441962 1.064007 -1.018155 19.426994 -77.261515 -0.009944 -0.000017 -57.727120 0.397304 0.629628 -77.260621 0.000016 -0.000016 -97.473008 -1.291829 0.717127 -37.080110 -1.779866 -0.803819 -99.969511 0.000023 -0.000017 -88.871717 -0.366354 -3.469140 -63.453011 -1.938629 0.204925 -67.116519 0.000013 -0.000018 -87.754216 -0.068392 -0.601864 -61.066317 -1.194373 -1.156486 -73.964323 0.000014 -0.000016 -17.665598 -15.710904 -6.433671 16.762217 65.208438 -5.373760 -14.563287 -26.745293 -51.076192 -1.019251 -1.625876 -0.089591 26.399292 -15.531802 26.723214 -27.633849 61.362734 31.262804 -9.074466 -26.911888 14.016697 0.320828 -3.196428 -0.051414 
61.749203 86.365700 8.757856 -1.526739 -6.534213 -29.952002 -7.167852 17.124703 3.824424 -2.504971 4.868902 1.075550 -2.486191 4.880433 1.114401 -1.656811 3.678731 0.797826 0.870842 -5.340661 10.419698 5.417736 -9.134270 19.958998 4.665560 -5.649882 -1.463031 49.401198 8.095678 1.007254 35.280898 19.640694 65.302407 -12.395704 7.568919 18.801197 -19.815381 67.781506 11.450781 41.096405 10.827294 -2.206058 0.067840 0.038355 -0.000003 77.261399 -0.009438 0.000016 57.727202 0.397744 -0.629208 49.003800 1.255777 -3.047222 94.417584 0.000023 0.000017 51.438011 -1.308203 1.450026 51.089596 0.000004 0.000009 90.997483 0.000022 0.000017 51.702910 -1.362653 1.394384 51.060701 0.000007 0.000016 77.261700 0.000012 0.000016 49.402400 -1.217790 1.131741 65.259500 0.000008 0.000019 10.221604 2.421651 -10.284201 -77.669387 -55.584288 -62.750990 -16.694089 16.185125 -68.578303 36.351100 -14.769698 12.533809 23.384119 70.691208 -12.601737 -68.021116 -1.912438 -2.441961 1.064011 -1.018148 19.426999 -77.261522 -0.009944 -0.000016 -57.727120 0.397306 0.629628 -77.260614 0.000016 -0.000021 -97.473008 -1.291827 0.717127 -37.080110 -1.779865 -0.803819 -99.969511 0.000023 -0.000018 -88.871717 -0.366355 -3.469139 -63.453011 -1.938631 0.204924 -67.116519 0.000012 -0.000020 -87.754216 -0.068392 -0.601864 -61.066317 -1.194370 -1.156484 -73.964323 0.000014 -0.000018 -17.525695 -15.839002 -6.796576 17.045005 65.361625 -5.648950 -14.792083 -26.731591 -51.195987 -0.964506 -1.604569 -0.039472 26.674086 -15.675006 26.695905 -28.125245 61.383026 31.427504 -9.004202 -26.932592 14.118197 0.532256 -3.250335 -0.046316 
61.798203 86.333405 8.674807 -1.595418 -6.434540 -29.822901 -7.265025 17.138601 3.935789 -2.544022 4.878962 1.117598 -2.525251 4.890602 1.156449 -1.685680 3.686812 0.828966 0.918325 -5.361853 10.298398 5.495577 -9.182410 19.735796 4.787999 -5.681752 -1.503939 49.544502 8.299688 1.245101 35.391585 19.526688 65.484309 -12.788807 7.581765 18.629698 -19.815378 67.781506 11.450782 41.096405 10.827290 -2.206058 0.067840 0.038351 -0.000002 77.261399 -0.009440 0.000014 57.727202 0.397749 -0.629214 49.003804 1.255778 -3.047219 94.417584 0.000022 0.000017 51.438008 -1.308206 1.450025 51.089593 0.000005 0.000013 90.997483 0.000019 0.000017 51.702900 -1.362653 1.394382 51.060701 0.000008 0.000012 77.261700 0.000015 0.000016 49.402400 -1.217793 1.131744 65.259500 0.000008 0.000014 10.342502 2.351778 -10.394601 -77.718885 -55.419390 -63.178710 -16.394290 16.145719 -68.516407 36.389800 -14.695497 12.620309 23.384124 70.691201 -12.601725 -68.021109 -1.912442 -2.441960 1.064005 -1.018153 19.426993 -77.261515 -0.009945 -0.000014 -57.727126 0.397305 0.629628 -77.260614 0.000016 -0.000021 -97.473008 -1.291828 0.717127 -37.080110 -1.779868 -0.803821 -99.969511 0.000022 -0.000018 -88.871717 -0.366356 -3.469140 -63.453011 -1.938630 0.204926 -67.116519 0.000013 -0.000018 -87.754216 -0.068397 -0.601864 -61.066317 -1.194371 -1.156485 -73.964323 0.000013 -0.000018 -17.383999 -15.957207 -7.119415 17.360505 65.476126 -5.973739 -14.986289 -26.728584 -51.298088 -0.911444 -1.577559 -0.006596 26.952290 -15.822203 26.658408 -28.603943 61.375124 31.554101 -8.927895 -26.933594 14.236893 0.767305 -3.316167 -0.040243 
61.833199 86.310501 8.583582 -1.660168 -6.329039 -29.679703 -7.367612 17.144504 4.051474 -2.585383 4.885592 1.161140 -2.566622 4.897264 1.200008 -1.716280 3.692323 0.861256 0.967224 -5.379162 10.168397 5.575418 -9.225973 19.496498 4.922704 -5.708766 -1.564122 49.670095 8.497732 1.495509 35.506390 19.422293 65.633706 -13.184207 7.571365 18.477897 -19.815388 67.781513 11.450780 41.096405 10.827292 -2.206057 0.067839 0.038355 -0.000005 77.261399 -0.009442 0.000015 57.727202 0.397746 -0.629214 49.003800 1.255778 -3.047216 94.417584 0.000016 0.000016 51.438004 -1.308204 1.450023 51.089586 0.000006 0.000014 90.997483 0.000017 0.000015 51.702906 -1.362655 1.394385 51.060701 0.000005 0.000016 77.261700 0.000015 0.000015 49.402400 -1.217796 1.131743 65.259500 0.000008 0.000017 10.467005 2.281278 -10.511302 -77.750789 -55.216694 -63.616990 -16.057087 16.110413 -68.446903 36.442208 -14.612500 12.709515 23.384104 70.691208 -12.601727 -68.021116 -1.912440 -2.441964 1.064007 -1.018151 19.426996 -77.261515 -0.009941 -0.000015 -57.727126 0.397308 0.629629 -77.260621 0.000016 -0.000021 -97.473008 -1.291825 0.717128 -37.080110 -1.779865 -0.803820 -99.969504 0.000023 -0.000018 -88.871717 -0.366355 -3.469140 -63.453011 -1.938630 0.204927 -67.116519 0.000013 -0.000018 -87.754216 -0.068393 -0.601865 -61.066317 -1.194369 -1.156485 -73.964323 0.000015 -0.000017 -17.241899 -16.063106 -7.400716 17.710020 65.550931 -6.349045 -15.145687 -26.737192 -51.377998 -0.859124 -1.545041 0.012264 27.232692 -15.971499 26.613817 -29.064647 61.341936 31.648904 -8.850315 -26.914594 14.361294 1.016931 -3.388748 -0.033445 
